<?xml version="1.0" standalone="no"?>
<!DOCTYPE svg PUBLIC "-//W3C//DTD SVG 20010904//EN"
 "http://www.w3.org/TR/2001/REC-SVG-20010904/DTD/svg10.dtd">
<svg version="1.0" xmlns="http://www.w3.org/2000/svg"
 width="256.000000pt" height="256.000000pt" viewBox="0 0 256.000000 256.000000"
 preserveAspectRatio="xMidYMid meet">
<g transform="translate(0.000000,256.000000) scale(0.100000,-0.100000)"
fill="#000000" stroke="none">
<path d="M890 1896 c0 -2 8 -10 18 -17 15 -13 16 -12 3 4 -13 16 -21 21 -21
13z"/>
<path d="M725 1871 c-3 -5 -2 -12 3 -15 5 -3 9 1 9 9 0 17 -3 19 -12 6z"/>
<path d="M365 1838 c3 -13 43 -201 89 -418 l83 -395 66 -3 c62 -3 67 -1 72 20
3 13 30 126 60 252 31 127 65 275 76 330 11 55 22 102 23 104 2 1 6 -19 9 -45
3 -27 39 -186 79 -355 l73 -308 66 0 c63 0 67 1 73 25 4 14 43 199 87 412 44
213 82 390 85 395 3 4 -20 8 -50 8 l-55 0 -10 -52 c-48 -239 -77 -396 -100
-533 l-27 -160 -13 65 c-7 36 -46 203 -87 373 l-76 307 -52 0 -53 0 -61 -237
c-34 -131 -73 -296 -87 -368 -15 -71 -28 -131 -29 -132 -1 -1 -10 48 -20 110
-16 103 -99 553 -111 605 -5 19 -12 22 -60 22 -52 0 -55 -1 -50 -22z m69 -4
c9 -3 16 -17 16 -29 0 -13 5 -27 10 -30 6 -4 8 -10 6 -13 -2 -4 0 -30 6 -57 5
-28 11 -61 13 -75 2 -14 19 -110 39 -215 20 -104 39 -208 42 -230 6 -50 29
-86 49 -79 8 3 20 25 26 48 19 75 27 111 27 126 0 8 3 26 7 40 4 14 9 36 12
50 2 14 7 32 10 40 3 8 7 24 9 35 2 11 21 88 44 170 22 83 42 159 43 170 5 33
16 45 43 45 25 0 42 -27 50 -75 1 -11 15 -65 29 -120 14 -55 30 -118 35 -140
5 -22 13 -52 19 -68 6 -15 15 -53 20 -85 20 -115 40 -194 56 -218 15 -24 18
-24 34 -10 10 9 18 22 18 29 1 6 13 80 28 162 14 83 28 162 30 177 2 15 6 36
10 47 3 10 8 34 11 52 3 19 7 48 10 64 16 100 41 180 57 183 22 4 22 -32 1
-130 -9 -40 -20 -91 -25 -113 -13 -66 -60 -289 -64 -305 -2 -8 -9 -42 -16 -75
-29 -148 -30 -150 -76 -153 l-42 -3 -19 68 c-28 101 -65 264 -67 296 -1 16 -6
32 -11 35 -5 4 -10 14 -10 22 -1 8 -4 26 -7 40 -16 75 -40 186 -41 195 -1 6
-7 19 -13 30 -11 19 -12 19 -32 1 -11 -10 -23 -35 -26 -55 -4 -20 -13 -63 -20
-96 -20 -82 -69 -293 -90 -390 -10 -44 -24 -95 -32 -113 -13 -31 -16 -33 -56
-30 -29 2 -42 8 -43 18 0 8 -6 33 -12 55 -6 22 -13 54 -16 70 -5 30 -35 181
-40 200 -2 6 -6 33 -11 60 -4 28 -10 54 -13 60 -3 5 -7 21 -9 35 -8 50 -10 65
-13 65 -1 0 -3 9 -4 20 -1 11 -11 55 -21 97 -10 42 -15 84 -12 92 7 18 9 18
31 10z"/>
<path d="M1440 1440 l0 -420 51 0 51 0 -5 338 c-3 185 -8 348 -12 362 -5 14
-5 22 -1 19 4 -4 33 -82 65 -175 32 -93 83 -235 112 -316 l54 -148 40 0 40 0
49 133 c27 72 77 215 112 316 35 101 67 187 70 190 4 3 4 -5 -1 -19 -4 -14 -9
-177 -12 -362 l-5 -338 51 0 51 0 0 420 0 420 -67 0 -68 0 -80 -227 c-44 -124
-91 -264 -105 -309 -14 -45 -28 -85 -31 -88 -3 -3 -13 20 -23 52 -10 31 -59
173 -109 315 l-90 257 -69 0 -68 0 0 -420z m680 -1 c0 -380 0 -389 -20 -389
-18 0 -19 9 -22 200 -2 109 1 262 6 339 7 119 7 142 -6 155 -14 13 -18 13 -37
-5 -12 -11 -19 -24 -16 -30 4 -5 1 -9 -5 -9 -6 0 -9 -4 -5 -9 3 -5 1 -12 -5
-16 -5 -3 -10 -16 -10 -29 0 -12 -3 -26 -7 -30 -4 -3 -8 -12 -9 -19 -1 -7 -19
-57 -39 -112 -20 -55 -38 -107 -40 -116 -2 -9 -12 -35 -23 -58 -11 -23 -16
-38 -10 -35 5 4 5 -2 -1 -12 -6 -11 -22 -45 -35 -76 -35 -81 -55 -79 -86 10
-13 37 -25 72 -26 77 -2 6 -19 50 -38 99 -20 49 -36 93 -36 97 0 3 -7 23 -15
43 -8 20 -15 37 -14 38 0 2 -8 27 -20 57 -11 30 -18 58 -15 63 3 4 1 8 -4 8
-6 0 -13 10 -16 23 -11 39 -33 62 -49 49 -12 -10 -13 -72 -9 -357 4 -315 3
-345 -12 -345 -15 0 -16 35 -16 390 l0 390 34 0 c35 0 54 -14 59 -46 2 -10 8
-28 14 -39 5 -11 18 -45 28 -75 10 -30 28 -82 41 -115 13 -33 24 -70 24 -83 0
-13 4 -21 8 -18 4 2 9 -7 10 -21 1 -13 5 -30 9 -36 4 -7 8 -14 8 -17 1 -3 11
-36 24 -75 22 -67 44 -105 62 -105 12 0 40 56 32 64 -4 3 -2 6 4 6 6 0 14 23
18 50 4 28 11 50 15 50 7 0 45 106 56 155 3 10 47 133 89 245 l25 66 40 -4 40
-4 0 -389z"/>
<path d="M1169 1023 c-13 -16 -12 -17 4 -4 9 7 17 15 17 17 0 8 -8 3 -21 -13z"/>
<path d="M696 1002 c-3 -5 1 -9 9 -9 8 0 12 4 9 9 -3 4 -7 8 -9 8 -2 0 -6 -4
-9 -8z"/>
<path d="M1583 995 c0 -8 4 -12 9 -9 5 3 6 10 3 15 -9 13 -12 11 -12 -6z"/>
<path d="M530 990 c-9 -6 -10 -10 -3 -10 6 0 15 5 18 10 8 12 4 12 -15 0z"/>
<path d="M1136 992 c-3 -5 1 -9 9 -9 8 0 12 4 9 9 -3 4 -7 8 -9 8 -2 0 -6 -4
-9 -8z"/>
</g>
</svg>
