<?xml version="1.0" standalone="no"?> <!DOCTYPE svg PUBLIC "-//W3C//DTD SVG 20010904//EN" "http://www.w3.org/TR/2001/REC-SVG-20010904/DTD/svg10.dtd"> <svg version="1.0" xmlns="http://www.w3.org/2000/svg" width="256.000000pt" height="256.000000pt" viewBox="0 0 256.000000 256.000000" preserveAspectRatio="xMidYMid meet"> <g transform="translate(0.000000,256.000000) scale(0.100000,-0.100000)" fill="#ffffff" stroke="none"> <path d="M360 1858 c1 -2 40 -190 89 -418 l88 -415 66 -3 c62 -3 67 -1 72 20 3 13 29 124 59 248 30 124 64 270 76 325 11 54 22 101 24 102 2 2 9 -29 15 -69 7 -40 42 -197 79 -348 l67 -275 67 -3 66 -3 11 48 c22 95 161 768 161 781 0 8 -17 12 -49 12 l-50 0 -10 -52 c-42 -213 -83 -432 -101 -538 -26 -159 -25 -156 -39 -85 -7 33 -46 198 -88 368 l-75 307 -54 0 c-30 0 -54 -2 -54 -4 0 -3 -27 -110 -60 -238 -33 -128 -71 -289 -85 -357 -14 -69 -27 -126 -28 -128 -2 -1 -9 34 -16 80 -14 90 -109 601 -117 630 -4 13 -17 17 -60 17 -30 0 -54 -1 -54 -2z"/> <path d="M1440 1440 l0 -420 51 0 52 0 -5 350 -4 350 51 -148 c29 -81 78 -220 111 -309 l59 -163 40 0 40 0 54 148 c30 81 80 220 111 310 l56 162 -4 -350 -5 -350 52 0 51 0 0 420 0 420 -67 0 -68 0 -92 -263 c-50 -144 -99 -286 -108 -316 l-18 -54 -47 139 c-26 76 -75 219 -110 317 l-63 177 -69 0 -68 0 0 -420z"/> </g> </svg>